<?xml version="1.0" encoding="UTF-8"?>
<svg width="45px" height="39px" viewBox="0 0 45 39" version="1.1" xmlns="http://www.w3.org/2000/svg" xmlns:xlink="http://www.w3.org/1999/xlink">
    <title>phone@2x</title>
    <g id="5.-Contact-Us" stroke="none" stroke-width="1" fill="none" fill-rule="evenodd">
        <g id="5.2-Desktop_HD_Contact-Us" transform="translate(-251.000000, -984.000000)" stroke="#F18700" stroke-width="2.42">
            <g id="Container-/-Text-&amp;-Images-/-2Col-Map" transform="translate(0.000000, 580.000000)">
                <g id="Group" transform="translate(253.000000, 396.000000)">
                    <path d="M30.631599,31.9542258 C27.6476615,33.3687373 27.8937413,35.4966737 23.7907959,33.3694254 C19.6878506,31.2421772 13.1696304,26.1784099 12.6034917,25.1192809 C12.298897,24.549447 12.7335546,22.9916172 13.9074645,20.4457914 L13.9074605,20.4457895 C14.499077,19.1627671 14.2925016,17.6530405 13.3779726,16.5761034 C10.5945234,13.2983513 7.78578528,11.1216985 4.95175826,10.0461449 C2.66605142,9.17868654 -7.37399232,20.6621937 10.0438816,34.3100009 C27.4617556,47.9578081 37.5846786,46.6836309 39.6941016,40.728681 C40.0428845,39.7440586 41,37.4126203 41,36.3023927 C41,34.7046761 32.7437901,30.9529587 30.631599,31.9542258 Z" id="phone"></path>
                </g>
            </g>
        </g>
    </g>
</svg>