<?xml version="1.0" encoding="UTF-8"?>
<svg width="27px" height="27px" viewBox="0 0 27 27" version="1.1" xmlns="http://www.w3.org/2000/svg" xmlns:xlink="http://www.w3.org/1999/xlink">
    <!-- Generator: Sketch 53.2 (72643) - https://sketchapp.com -->
    <title>Shape</title>
    <desc>Created with Sketch.</desc>
    <g id="Components" stroke="none" stroke-width="1" fill="none" fill-rule="evenodd">
        <g id="STICKY-MENU" transform="translate(-1512.000000, -27.000000)" fill="#FFFFFF" fill-rule="nonzero">
            <g id="search" transform="translate(1512.000000, 27.000000)">
                <path d="M26.1217895,24.5780526 L19.6995789,17.8986316 C21.3508421,15.9356842 22.2555789,13.4658947 22.2555789,10.8947368 C22.2555789,4.88747368 17.3681053,0 11.3608421,0 C5.35357895,0 0.466105263,4.88747368 0.466105263,10.8947368 C0.466105263,16.902 5.35357895,21.7894737 11.3608421,21.7894737 C13.6160526,21.7894737 15.7651579,21.1092632 17.6025789,19.818 L24.0735789,26.5481053 C24.3440526,26.829 24.7078421,26.9838947 25.0976842,26.9838947 C25.4666842,26.9838947 25.8167368,26.8432105 26.0824737,26.5874211 C26.6471053,26.0441053 26.6651053,25.1431579 26.1217895,24.5780526 Z M11.3608421,2.84210526 C15.8011579,2.84210526 19.4134737,6.45442105 19.4134737,10.8947368 C19.4134737,15.3350526 15.8011579,18.9473684 11.3608421,18.9473684 C6.92052632,18.9473684 3.30821053,15.3350526 3.30821053,10.8947368 C3.30821053,6.45442105 6.92052632,2.84210526 11.3608421,2.84210526 Z" id="Shape"></path>
            </g>
        </g>
    </g>
</svg>